<svg xmlns="http://www.w3.org/2000/svg" width="20" height="20" viewBox="0 0 20 20" fill="none">
  <g clip-path="url(#clip0_1019_2055)">
    <path d="M15 7.50033H16.6667C17.1087 7.50033 17.5326 7.67592 17.8452 7.98848C18.1577 8.30104 18.3333 8.72497 18.3333 9.16699V18.3337L15 15.0003H10C9.55798 15.0003 9.13406 14.8247 8.82149 14.5122C8.50893 14.1996 8.33334 13.7757 8.33334 13.3337V12.5003M11.6667 7.50033C11.6667 7.94235 11.4911 8.36628 11.1785 8.67884C10.866 8.9914 10.442 9.16699 10 9.16699H5.00001L1.66667 12.5003V3.33366C1.66667 2.41699 2.41667 1.66699 3.33334 1.66699H10C10.442 1.66699 10.866 1.84259 11.1785 2.15515C11.4911 2.46771 11.6667 2.89163 11.6667 3.33366V7.50033Z" stroke="#4B5563" stroke-width="1.5" stroke-linecap="round" stroke-linejoin="round"/>
  </g>
  <defs>
    <clipPath id="clip0_1019_2055">
      <rect width="20" height="20" fill="white"/>
    </clipPath>
  </defs>
</svg>